<?xml version="1.0" encoding="utf-8"?>
<!-- Generator: Adobe Illustrator 24.0.3, SVG Export Plug-In . SVG Version: 6.00 Build 0)  -->
<svg version="1.1" id="Layer_1" xmlns="http://www.w3.org/2000/svg" xmlns:xlink="http://www.w3.org/1999/xlink" x="0px" y="0px"
	 viewBox="0 0 120 120" style="enable-background:new 0 0 120 120;" xml:space="preserve">
<g>
	<path d="M75.5,25.7c-1.2,0-2.3-1.1-2.3-2.3V10.3c0-1.2,1.1-2.3,2.3-2.3c1.2,0,2.3,1.1,2.3,2.3v13.2C77.6,24.8,76.6,25.7,75.5,25.7z
		"/>
	<path d="M117.3,54.4h-13.2c-1.2,0-2.3-1.1-2.3-2.3s1.1-2.3,2.3-2.3h13.2c1.2,0,2.3,1.1,2.3,2.3C119.6,53.3,118.5,54.4,117.3,54.4z"
		/>
	<path d="M56.7,33.6c-0.9,0.9-2.3,0.9-3.1,0l-9.4-9.4c-0.9-0.9-0.9-2.3,0-3.1c0.9-0.9,2.3-0.9,3.1,0l9.4,9.4
		C57.6,31.2,57.6,32.6,56.7,33.6z"/>
	<path d="M106.6,83.4c-0.9,0.9-2.3,0.9-3.1,0L94.1,74c-0.9-0.9-0.9-2.3,0-3.1s2.3-0.9,3.1,0l9.4,9.4
		C107.5,81.3,107.5,82.5,106.6,83.4z"/>
	<path d="M97.1,33.6c-0.9,0.9-2.3,0.9-3.1,0c-0.9-0.9-0.9-2.3,0-3.1l9.4-9.4c0.9-0.9,2.3-0.9,3.1,0c0.9,0.9,0.9,2.3,0,3.1L97.1,33.6
		z"/>
	<path d="M58.6,50c7.7,0,14.3,5.7,15.3,13.2c5.6-0.2,10.6,2.1,13.9,5.9c5.1-3.8,8.5-10,8.5-17c0-11.7-9.4-20.9-20.9-20.9
		c-11.1,0-20,8.5-20.9,19.3C55.9,50.2,57.2,50,58.6,50z"/>
	<path d="M74.7,97.8H21.8C10,97.8,0.4,88.3,0.4,76.4c0-9.6,6.7-18.2,16.1-20.6c1.5-9.3,9.4-16.2,18.8-16.2c7.7,0,14.9,4.9,17.7,12.1
		c1.8-0.7,3.5-1.1,5.5-1.1c7.6,0,13.9,5.9,14.7,13.2c9.9-0.9,18.3,7.1,18.3,17C91.5,90.2,84,97.8,74.7,97.8z M35.4,42.6
		c-8.3,0-15.3,6.2-16.1,14.5c0,0.6-0.6,1.2-1.2,1.3c-8.4,1.8-14.7,9.3-14.7,18c0,10.1,8.2,18.3,18.3,18.3h52.9
		c7.6,0,13.9-6.4,13.9-13.9s-6.4-13.9-13.9-13.9c-0.9,0-1.8,0.1-2.6,0.2c-0.5,0.1-0.9,0-1.2-0.2c-0.4-0.2-0.6-0.7-0.6-1.2v-0.1
		c0-6.7-5.3-11.8-11.8-11.8c-2,0-3.8,0.5-5.6,1.5c-0.5,0.1-0.9,0.2-1.3,0c-0.5-0.1-0.7-0.6-0.9-0.9C48.8,47.4,42.4,42.6,35.4,42.6z"
		/>
</g>
</svg>
