<?xml version="1.0" encoding="utf-8"?>
<!-- Generator: Adobe Illustrator 24.0.3, SVG Export Plug-In . SVG Version: 6.00 Build 0)  -->
<svg version="1.1" id="Layer_1" xmlns="http://www.w3.org/2000/svg" xmlns:xlink="http://www.w3.org/1999/xlink" x="0px" y="0px"
	 viewBox="0 0 120 120" style="enable-background:new 0 0 120 120;" xml:space="preserve">
<g>
	<path d="M119.6,70c-16.4,1.5-32.4-7.7-39-23.7c-5.8-14.2-2.6-30,7.2-40.7c-3.8,0.3-7.7,1.2-11.3,2.8C60.3,15.1,51.2,31.4,52.8,48
		c-2.9-0.9-6-1.5-9.3-1.5c-15.9,0-29.1,11.8-31.8,28.2C4.6,79,0.4,86.4,0.4,93.7c0,11.2,8.9,23.1,23.1,23.1h69.2
		c13.2,0,24.3-10.6,24.3-23.1c0-6.3-2.8-11.9-7.2-16.2C113.6,75.6,117,73,119.6,70z M109,93.9c0,8.1-7.3,15-16.2,15H23.6
		c-9.3,0-15-7.8-15-15c0-4.9,3.5-10.3,8.9-13.2l1.8-1.1l0.3-2.1c1.5-13.3,11.6-23,24-23c4.3,0,8.1,1.1,11.8,3.5
		c1.4,0.9,2.8,2,4.1,3.2l1.5,1.4l2-0.5c1.4-0.3,3.5-0.5,4.6-0.5c8,0,14.7,6.1,15.9,14.1l0.6,4.4l4.3-1.1c1.4-0.3,2.9-0.5,4.3-0.5
		c3.1,0,6,0.9,8.4,2.3C105.8,83.9,109,88.7,109,93.9z"/>
	<polygon points="22.7,27.8 30.7,23.5 38.8,27.8 37.2,18.9 43.7,12.6 34.6,11.2 30.7,3.1 26.7,11.2 17.8,12.6 24.2,18.9 	"/>
	<polygon points="5.4,54.4 11.1,51.5 16.6,54.4 15.5,48.3 20.1,43.8 13.8,42.9 11.1,37.2 8.2,42.9 2,43.8 6.5,48.3 	"/>
</g>
</svg>
