<?xml version="1.0" encoding="utf-8"?>
<!-- Generator: Adobe Illustrator 24.0.3, SVG Export Plug-In . SVG Version: 6.00 Build 0)  -->
<svg version="1.1"
	 id="Layer_1" xmlns:cc="http://creativecommons.org/ns#" xmlns:dc="http://purl.org/dc/elements/1.1/" xmlns:inkscape="http://www.inkscape.org/namespaces/inkscape" xmlns:rdf="http://www.w3.org/1999/02/22-rdf-syntax-ns#" xmlns:sodipodi="http://sodipodi.sourceforge.net/DTD/sodipodi-0.dtd" xmlns:svg="http://www.w3.org/2000/svg"
	 xmlns="http://www.w3.org/2000/svg" xmlns:xlink="http://www.w3.org/1999/xlink" x="0px" y="0px" viewBox="0 0 120 120"
	 style="enable-background:new 0 0 120 120;" xml:space="preserve">
<g>
	<path d="M36.5,13c-1.7,0.3-3,0.3-4.7,0.8c-5.8,2.2-10,6.9-11.9,12.7c-0.6,0-1.1-0.3-1.9-0.3c-1.7,0-3.3,0.3-5,0.8
		c-8.6,3-13.8,11.9-12.5,21c0.8,8,8.3,16.3,18.3,16.3c7.5,0,14.7,0,22.2,0c6.1-0.3,11.4-4.2,13.6-9.7c0.3-0.8,0.6-1.7,0.8-2.5h3.9
		c0,0,0,0,0.3,0c6.1-0.3,11.4-4.2,13.6-10c2.2-5.8,0.8-12.2-3.6-16.6c-4.2-4.2-10-4.7-15.2-2.8c-3.6-6.1-10-10.2-16.9-10 M37,15.8
		L37,15.8c6.1-0.3,11.9,3.6,15,9.4c0,0.3,0.3,0.3,0.3,0.3l0.3,0.3c0.6,0.6,1.1,0.6,1.7,0.3c4.7-1.9,9.7-1.7,13,1.9
		c3.6,3.6,4.7,8.6,2.8,13.6c-1.7,4.7-6.1,7.8-10.8,8h-3.9c0-2.5-0.8-5-1.9-7.2c-0.6-1.1-1.7-2.2-2.5-3.3c-2.5-2.5-6.1-3.6-9.4-3.6
		c-1.9,0-3.9,0.3-6.1,0.8c-2.2-3.6-5.5-6.6-9.7-8c-0.3,0-0.3-0.3-0.6-0.3c-0.3-0.3-0.6-0.3-0.6-0.3c-0.6-0.3-1.1-0.6-1.9-0.6
		c1.7-4.7,5-8.6,9.7-10.5C34.2,16,35.6,15.8,37,15.8L37,15.8z M18.7,29.3c6.9,0.3,12.2,4.7,15,9.1c0.6,1.1,1.4,1.1,2.2,0.8
		c4.7-1.7,9.7-1.4,13.3,1.9c3.6,3.3,4.7,8.3,2.8,12.7c-1.7,4.4-6.1,7.5-10.8,7.8c-7.2,0-14.4,0-21.9,0c-7.8-0.3-14.1-6.1-15.2-13.6
		s3.3-15.2,10.5-17.7C16,29.6,17.4,29.3,18.7,29.3L18.7,29.3z"/>
	<path d="M82.1,52.4c-1.7,0.3-3,0.3-4.7,0.8c-5.8,2.2-10,6.9-11.9,12.7c-0.6,0-1.1-0.3-1.9-0.3c-1.7,0-3.3,0.3-5,0.8
		c-8.6,3-13.8,11.9-12.5,21c0.8,8,8.3,16.3,18.3,16.3c7.5,0,14.7,0,22.2,0c6.1-0.3,11.4-4.2,13.6-9.7c0.3-0.8,0.6-1.7,0.8-2.5h3.9
		c0,0,0,0,0.3,0c6.1-0.3,11.4-4.2,13.6-10c2.2-5.8,0.8-12.2-3.6-16.6c-4.2-4.2-10-4.7-15.2-2.8c-3.6-6.1-10-10.2-16.9-10 M82.9,55.1
		L82.9,55.1c6.1-0.3,11.9,3.6,15,9.4c0,0.3,0.3,0.3,0.3,0.3l0.3,0.3c0.6,0.6,1.1,0.6,1.7,0.3c4.7-1.9,9.7-1.7,13,1.9
		c3.6,3.6,4.7,8.6,2.8,13.6c-1.7,4.7-6.1,7.8-10.8,8h-3.9c0-2.5-0.8-5-1.9-7.2c-0.6-1.1-1.7-2.2-2.5-3.3c-2.5-2.5-6.1-3.6-9.4-3.6
		c-1.9,0-3.9,0.3-6.1,0.8c-2.2-3.6-5.5-6.6-9.7-8c-0.3,0-0.3-0.3-0.6-0.3C70.7,67,70.4,67,70.4,67c-0.6-0.3-1.1-0.6-1.9-0.6
		c1.7-4.7,5-8.6,9.7-10.5C80.1,55.4,81.5,55.1,82.9,55.1L82.9,55.1z M64.4,68.7c6.9,0.3,12.2,4.7,15,9.1c0.6,1.1,1.4,1.1,2.2,0.8
		c4.7-1.7,9.7-1.4,13.3,1.9c3.6,3.3,4.7,8.3,2.8,12.7c-1.9,4.4-6.1,7.5-10.8,7.8c-7.2,0-14.4,0-21.9,0c-7.8-0.3-14.1-6.1-15.2-13.6
		c-1.1-7.8,3.3-15.2,10.5-17.7C61.6,69,63,68.7,64.4,68.7L64.4,68.7z"/>
</g>
</svg>
