<?xml version="1.0" encoding="utf-8"?>
<!-- Generator: Adobe Illustrator 24.0.3, SVG Export Plug-In . SVG Version: 6.00 Build 0)  -->
<svg version="1.1" id="Layer_1" xmlns="http://www.w3.org/2000/svg" xmlns:xlink="http://www.w3.org/1999/xlink" x="0px" y="0px"
	 viewBox="0 0 120 120" style="enable-background:new 0 0 120 120;" xml:space="preserve">
<title>94 Cloudy Windy</title>
<g>
	<path d="M110.2,79.7c-0.4,0-0.8-0.1-1.2-0.1c-2.8,0-5.2,2-5.8,4.7c-0.1,0.2-0.1,0.5-0.1,0.8c0,0.1,0,0.2,0,0.4
		c0,3.3,2.6,5.9,5.9,5.9c0.4,0,0.8,0,1.2-0.1c0.5-0.1,0.9-0.2,1.3-0.5c0.4-0.2,0.7-0.6,0.7-1.1c0-0.7-0.5-1.2-1.2-1.2
		c-0.1,0-0.4,0-0.5,0.1c-0.1,0-0.2,0.1-0.4,0.1c-0.5,0.2-1.1,0.2-1.5,0.2c-1.5-0.2-2.7-1.4-3.1-2.8c-0.1-0.6-0.1-1.2,0.1-1.9
		c0.5-1.3,1.6-2.2,2.9-2.4h0.4c0.4,0,0.8,0,1.2,0.1c3.4,0.6,5.9,3.5,5.9,7c0,2-0.8,4-2.4,5.3c-0.9,0.8-2.2,1.4-3.5,1.6
		c-0.4,0.1-0.8,0.1-1.2,0.1H77.2c-0.7,0-1.2,0.5-1.2,1.2c0,0.7,0.5,1.2,1.2,1.2h31.8c5.2,0,9.4-4.2,9.4-9.4
		C118.5,84.3,114.9,80.3,110.2,79.7z"/>
	<path d="M117.3,103.2H77.2c-0.7,0-1.2,0.5-1.2,1.2c0,0.7,0.5,1.2,1.2,1.2h40.1c0.7,0,1.2-0.5,1.2-1.2
		C118.5,103.6,118,103.2,117.3,103.2z"/>
	<path d="M73.7,97.4H64c-0.2-8-7-14.3-15-14c-2.9,0.1-5.8,1.1-8.1,2.8c-0.1-0.6-0.1-1.2-0.1-1.8c0-0.5,0-0.8,0.1-1.3
		c0.1-0.8,0.2-1.5,0.5-2.4c1.6-5.4,6.6-9.2,12.4-9.2H57v-2.4c0-12,9.7-21.7,21.7-21.7s21.7,9.7,21.7,21.7v2.4h3.2
		c2.8,0,5.5,0.9,7.8,2.6c0.6,0.5,1.2,1.1,1.8,1.5c0.8,0.8,1.5,1.9,2,2.9c1.3,0.7,2.5,1.8,3.4,2.9c-0.6-2.9-1.9-5.5-4-7.7
		c7.2-10,4.9-24-5.1-31.2c-4-2.7-8.6-4.2-13.3-4.2h-1.2c0-19.6-15.8-35.4-35.4-35.4S24.2,18.9,24.2,38.5H23
		c-12.4,0-22.4,10-22.4,22.4s10,22.4,22.4,22.4h15.3c0,0.5,0,0.8,0,1.3c0,1.2,0.1,2.5,0.5,3.7c-2.4,2.7-3.8,6.1-3.8,9.7h-0.5
		c-5.1,0-9.2,4.1-9.2,9.2c0,5.1,4.1,9.2,9.2,9.2h29.9c5.1,0,9.2-4.1,9.2-9.2c0-2.5-0.9-4.8-2.7-6.5c-0.4-0.4-0.6-0.6-0.9-0.8h4.7
		C74.2,99.2,73.7,98.3,73.7,97.4z M38.8,80.9H23c-11.1,0-20-9-20-20s9-20,20-20h3.5v-2.4c0-18.3,14.7-33,33-33s33,14.7,33,33v2.4
		h3.5c11.1,0,20,9,20,20c0,4.1-1.3,8.1-3.7,11.5c-2.6-2-5.9-3.1-9.2-3.1h-0.8c0-13.3-10.7-24-24-24s-24,10.7-24,24h-0.8
		C46.6,69.3,40.5,74,38.8,80.9z M71.3,107c0,3.8-3.1,6.8-6.8,6.8H34.6c-3.8,0-6.8-3.1-6.8-6.8s3.1-6.8,6.8-6.8h2.8v-2.4
		c0-2.6,0.8-5.1,2.2-7.1c0.5-0.7,1.1-1.4,1.8-2l0,0c4.9-4.5,12.7-4,17.1,0.9c1.9,2.1,2.9,4.7,3.1,7.5c0,0.1,0,0.4,0,0.5v2.4h2.8
		C68.3,100.2,71.3,103.3,71.3,107z"/>
</g>
</svg>
