<?xml version="1.0" encoding="utf-8"?>
<!-- Generator: Adobe Illustrator 24.0.3, SVG Export Plug-In . SVG Version: 6.00 Build 0)  -->
<svg version="1.1" id="Layer_1" xmlns="http://www.w3.org/2000/svg" xmlns:xlink="http://www.w3.org/1999/xlink" x="0px" y="0px"
	 viewBox="0 0 120 120" style="enable-background:new 0 0 120 120;" xml:space="preserve">
<title>230 Cloudy Windy</title>
<g>
	<path d="M110.5,82.2c-0.4,0-0.8-0.1-1.2-0.1c-2.7,0-5.1,2-5.7,4.7c-0.1,0.2-0.1,0.5-0.1,0.8c0,0.1,0,0.2,0,0.4
		c0,3.3,2.6,5.9,5.9,5.9c0.4,0,0.8,0,1.2-0.1c0.5-0.1,0.8-0.2,1.3-0.5c0.4-0.2,0.7-0.6,0.7-1.1c0-0.7-0.5-1.2-1.2-1.2
		c-0.1,0-0.4,0-0.5,0.1c-0.1,0-0.2,0.1-0.4,0.1c-0.5,0.2-1.1,0.2-1.5,0.2c-1.5-0.2-2.7-1.4-3.1-2.8c-0.1-0.6-0.1-1.3,0.1-1.9
		c0.5-1.3,1.7-2.2,3-2.4h0.4c0.4,0,0.8,0,1.2,0.1c3.4,0.6,5.9,3.5,5.9,7c0,2-0.8,3.9-2.4,5.3c-0.9,0.8-2.2,1.4-3.5,1.7
		c-0.4,0.1-0.8,0.1-1.2,0.1H77.5c-0.7,0-1.2,0.5-1.2,1.2c0,0.7,0.5,1.2,1.2,1.2h31.8c5.2-0.2,9.2-4.7,9-9.9
		C118,86.6,114.8,82.9,110.5,82.2L110.5,82.2z"/>
	<path d="M117.6,105.6H77.5c-0.7,0-1.2,0.5-1.2,1.2c0,0.7,0.5,1.2,1.2,1.2h40.1c0.7,0,1.2-0.5,1.2-1.2
		C118.7,106.1,118.3,105.6,117.6,105.6z"/>
	<path d="M74.1,99.9h-9.7c-0.2-8-7-14.3-15-13.9c-3,0.1-5.8,1.1-8.2,2.8c-0.1-0.6-0.1-1.2-0.1-1.8c0-0.5,0-0.8,0.1-1.3
		c0.1-0.8,0.2-1.5,0.5-2.4c1.7-5.4,6.6-9.2,12.3-9.2h3.2v-2.4c0.2-11.9,10.2-21.4,22.2-21.2c11.5,0.2,20.7,9.6,21,21.2v2.4h3.2
		c2.8,0,5.4,0.9,7.7,2.6c0.6,0.5,1.2,0.9,1.8,1.5c0.8,0.8,1.4,1.9,2,3c1.3,0.7,2.5,1.8,3.4,2.8c-0.6-2.8-1.9-5.6-4-7.7
		c7.2-10,5-24-5.1-31.2c-3.8-2.7-8.4-4.3-13.1-4.3h-1.2c0-1.3,0-2.6-0.2-3.8l0,0c1.8,0.7,3.5,1.2,5.4,1.4c6.7,0.8,13.4-1.5,18-6.6
		c0.5-0.5,0.5-1.3-0.1-1.9c-0.4-0.2-0.7-0.4-1.1-0.4c-2.4,0.5-5,0.6-7.3,0.2C98.5,28.5,90.6,18,92.2,6.7c0.2-1.5,0.6-3,1.1-4.4
		c0.2-0.7-0.1-1.4-0.8-1.7c-0.4-0.1-0.8-0.1-1.2,0.1c-4.5,3.1-7.7,7.8-8.7,13.2C67.6,1.5,45.2,3.4,32.7,18.3
		c-5.3,6.4-8.3,14.4-8.3,22.7h-1.2c-12.4,0-22.3,10-22.3,22.3s10,22.3,22.3,22.3h15.4c0,0.5,0,0.8,0,1.3c0,1.2,0.1,2.5,0.5,3.7
		c-2.4,2.7-3.8,6.1-3.8,9.7h-0.5c-5.1,0-9.2,4.1-9.2,9.2c0,5.1,4.1,9.2,9.2,9.2h29.9c5.1,0,9.2-4.1,9.2-9.2c0-2.5-0.9-4.7-2.7-6.5
		c-0.4-0.4-0.6-0.6-0.9-0.8h4.6C74.4,101.6,74.1,100.7,74.1,99.9z M90.1,4.8c-2.6,12.5,5.4,24.8,18,27.4c0.5,0.1,0.9,0.2,1.4,0.2
		c1.1,0.1,2.2,0.2,3.3,0.2c0.5,0,0.9,0,1.4,0c-3.2,2.5-7.1,3.8-11.2,3.8c-0.8,0-1.5,0-2.4-0.1c-2.1-0.2-4.3-0.9-6.1-1.9
		c-1.3-7.1-4.7-13.5-9.9-18.6C85.2,11.6,87.1,7.7,90.1,4.8z M39.1,83.4H23.4c-11.1,0-20-9-20-20s9-20,20-20h3.5v-2.4
		c0-18.2,14.8-33,33-33c8.4,0,16.5,3.2,22.7,9c0.4,0.2,0.6,0.6,0.9,0.9l0.2,0.2c0.2,0.4,0.6,0.6,0.9,0.9c3.4,3.9,5.9,8.4,7.2,13.5
		c0.1,0.4,0.1,0.6,0.2,0.9c0.1,0.4,0.1,0.6,0.2,0.8c0.1,0.2,0,0.2,0.1,0.4c0.4,2.1,0.6,4.1,0.6,6.3v2.4h3.5c11,0,20,9,20,20
		c0,4.1-1.3,8.2-3.7,11.6c-2.6-2-5.9-3.1-9.2-3.1h-0.8c0-13.2-10.8-24-24-24s-24,10.8-24,24H54C46.9,71.8,40.9,76.6,39.1,83.4z
		 M71.7,109.5c0,3.8-3.1,6.9-6.9,6.9l0,0H35c-3.8-0.1-6.7-3.3-6.5-7.1c0.1-3.5,3-6.4,6.5-6.5h2.8v-2.4c0-2.6,0.8-5.1,2.2-7.1
		c0.5-0.7,1.1-1.4,1.8-1.9l0,0c5-4.5,12.6-4,17.1,0.9c1.9,2.1,3,4.8,3.1,7.6c0,0.1,0,0.4,0,0.5v2.4h2.8
		C68.6,102.6,71.7,105.7,71.7,109.5L71.7,109.5z"/>
</g>
</svg>
