<?xml version="1.0" encoding="utf-8"?>
<!-- Generator: Adobe Illustrator 24.0.3, SVG Export Plug-In . SVG Version: 6.00 Build 0)  -->
<svg version="1.1" id="Layer_1" xmlns="http://www.w3.org/2000/svg" xmlns:xlink="http://www.w3.org/1999/xlink" x="0px" y="0px"
	 viewBox="0 0 120 120" style="enable-background:new 0 0 120 120;" xml:space="preserve">
<style type="text/css">
	.st0{fill:none;stroke:#000000;stroke-width:4;stroke-linecap:round;stroke-linejoin:round;stroke-miterlimit:10;}
</style>
<g>
	<path class="st0" d="M85.8,73H101c7.6,0,13.8-6.2,13.8-13.8s-6.2-13.8-13.8-13.8c-0.1,0-0.1,0-0.2,0l0,0c0-15-12.2-27.4-27.4-27.4
		c-11.1,0-20.5,6.6-24.9,15.9c-2.9-1.5-6.1-2.4-9.6-2.4c-9,0-16.7,5.8-19.5,13.8c-0.4,0-0.7,0-1.1,0c-7.6,0-13.8,6.2-13.8,13.8
		S10.7,73,18.3,73h18"/>
	<polygon class="st0" points="58.4,53.3 69.8,53.3 63.3,70.5 73.5,70.5 50.9,102.6 60.4,76.9 51.7,76.9 	"/>
</g>
</svg>
