<?xml version="1.0" encoding="utf-8"?>
<!-- Generator: Adobe Illustrator 24.0.3, SVG Export Plug-In . SVG Version: 6.00 Build 0)  -->
<svg version="1.1" id="Layer_1" xmlns="http://www.w3.org/2000/svg" xmlns:xlink="http://www.w3.org/1999/xlink" x="0px" y="0px"
	 viewBox="0 0 120 120" style="enable-background:new 0 0 120 120;" xml:space="preserve">
<path d="M99.7,69.9l-11.8,3.2l-22.5-13l22.5-13l11.8,3.2c1.4,0.4,2.9-0.5,3.3-1.9s-0.5-2.9-1.9-3.3l-6.6-1.8l6.1-3.5
	c1.3-0.7,1.7-2.4,1-3.7c-0.7-1.3-2.4-1.7-3.7-1l-6.1,3.5l1.8-6.6c0.4-1.4-0.5-2.9-1.9-3.3s-2.9,0.5-3.3,1.9l-3.3,11.8l-22.5,13v-26
	l8.7-8.7c1.1-1.1,1.1-2.8,0-3.8c-1.1-1.1-2.8-1.1-3.9,0l-4.8,4.9v-7.1c0-1.5-1-2.7-2.5-2.7s-2.5,1.2-2.5,2.7v7.1l-5-4.9
	c-1.1-1.1-2.8-1.1-3.9,0c-1.1,1.1-0.9,2.8,0.1,3.8l8.8,8.7v26L35,42.4l-3.3-11.8c-0.4-1.4-1.9-2.3-3.3-1.9s-2.3,1.9-1.9,3.3l1.8,6.6
	l-6.1-3.5c-1.3-0.7-2.9-0.3-3.7,1c-0.7,1.3-0.3,2.9,1,3.7l6.1,3.5L19,45.1c-1.6,0.3-2.4,1.8-2.1,3.2c0.4,1.4,1.9,2.3,3.3,1.9L32,47
	l22.5,13L32,73l-11.8-3.2c-1.4-0.4-2.9,0.5-3.3,1.9c-0.4,1.4,0.5,2.9,1.9,3.3l6.6,1.8l-6.1,3.6c-1.3,0.7-1.7,2.4-1,3.7
	c0.7,1.3,2.4,1.7,3.7,1l6.1-3.5l-1.8,6.6c-0.4,1.4,0.5,2.9,1.9,3.3c1.4,0.4,2.9-0.5,3.3-1.9l3.3-11.8l22.6-13v26l-8.6,8.6
	c-1.1,1.1-1.1,2.8-0.1,3.8c1.1,1.1,2.9,1.1,3.9,0l5-4.9v7.1c0,1.5,1,2.7,2.5,2.7s2.5-1.2,2.5-2.7v-7.1l4.9,4.9
	c1.1,1.1,2.8,1.1,3.8,0c1.1-1.1,1-2.8,0-3.8l-8.7-8.7v-26l22.5,13l3.2,11.8c0.4,1.4,1.9,2.3,3.3,1.9c1.4-0.4,2.3-1.9,1.9-3.3
	l-1.8-6.6l6.1,3.5c1.3,0.7,2.9,0.3,3.7-1c0.7-1.3,0.3-2.9-1-3.7l-6.1-3.5L101,75c1.4-0.4,2.3-1.9,1.9-3.3
	C102.6,70.2,101.2,69.4,99.7,69.9z"/>
</svg>
