<?xml version="1.0" encoding="utf-8"?>
<!-- Generator: Adobe Illustrator 24.0.3, SVG Export Plug-In . SVG Version: 6.00 Build 0)  -->
<svg version="1.1"
	 id="Layer_1" xmlns:cc="http://creativecommons.org/ns#" xmlns:dc="http://purl.org/dc/elements/1.1/" xmlns:inkscape="http://www.inkscape.org/namespaces/inkscape" xmlns:rdf="http://www.w3.org/1999/02/22-rdf-syntax-ns#" xmlns:sodipodi="http://sodipodi.sourceforge.net/DTD/sodipodi-0.dtd" xmlns:svg="http://www.w3.org/2000/svg"
	 xmlns="http://www.w3.org/2000/svg" xmlns:xlink="http://www.w3.org/1999/xlink" x="0px" y="0px" viewBox="0 0 120 120"
	 style="enable-background:new 0 0 120 120;" xml:space="preserve">
<g>
	<path d="M91.5,36.7c-9.2,0-16.7-7.5-16.7-16.7c0-2.7,0.7-5.2,1.7-7.5c-8.2,4.2-11.5,14.2-7.2,22.4c4.2,8.2,14.2,11.5,22.4,7.2
		C95,40.7,97.5,38,99,35C96.7,36,94.2,36.7,91.5,36.7z"/>
	<path d="M57.2,33c-2.2,0.2-1.8,0.2-6.5,1.8c-8.2,3-14.2,10-16.9,18.4c-1,0-1.7-0.2-2.7-0.2c-2.5,0-4.7,0.5-7.2,1.2
		C11.3,58.6,3.8,71.3,5.8,84.3c1,11.7,12,23.2,26.2,23.2c10.7,0,20.9,0,31.6,0c8.7-0.5,16.4-6,19.4-13.7c0.5-1.2,1-2.5,1-3.7h5.7
		c0,0,0,0,0.2,0c8.7-0.5,16.2-6.2,19.2-14.4s1-17.4-5-23.9c-6-6-14.4-6.5-21.9-4.2C77.1,38.7,67.8,32.7,58.1,33c-0.1,0-0.2,0-0.4,0
		 M58.1,37.5L58.1,37.5c8.5-0.2,17.2,5,21.4,13.4c0,0.2,0.2,0.5,0.5,0.5l0.5,0.5c0.7,0.7,1.5,1,2.5,0.5c6.5-2.7,13.9-2.2,18.9,2.7
		s6.5,12.5,4.2,19.2c-2.5,6.5-8.5,11.2-15.4,11.7h-5.5c0-3.5-1-7-2.7-10.2c-1-1.7-2.2-3.2-3.5-4.5c-3.7-3.5-8.5-5.2-13.4-5.2
		c-2.7,0-5.7,0.5-8.5,1.2c-3.2-5.2-8.2-9.5-13.7-11.7c-0.2,0-0.5-0.2-0.7-0.2c-1-0.5-1.2-0.5-1.5-0.7c-1-0.2-1.7-0.7-2.7-1
		c2.2-6.7,7-12.5,13.7-15.2C54.1,38,56.1,37.5,58.1,37.5L58.1,37.5z M31.7,57.1c10,0.2,17.4,6.5,21.2,13c1,1.5,2,1.5,3,1.2
		c6.7-2.2,13.9-2,19.2,2.7c5,4.7,6.5,12,4.2,18.2c-2.5,6.5-8.5,10.7-15.4,11c-10.2,0-20.9,0-31.4,0c-11-0.5-20.2-8.5-21.9-19.4
		S15,62.1,25.7,58.4C27.5,57.4,29.7,57.1,31.7,57.1L31.7,57.1z"/>
	<path d="M57.9,33.3"/>
</g>
</svg>
