<?xml version="1.0" encoding="utf-8"?>
<!-- Generator: Adobe Illustrator 24.0.3, SVG Export Plug-In . SVG Version: 6.00 Build 0)  -->
<svg version="1.1"
	 id="Layer_1" xmlns:cc="http://creativecommons.org/ns#" xmlns:dc="http://purl.org/dc/elements/1.1/" xmlns:inkscape="http://www.inkscape.org/namespaces/inkscape" xmlns:rdf="http://www.w3.org/1999/02/22-rdf-syntax-ns#" xmlns:sodipodi="http://sodipodi.sourceforge.net/DTD/sodipodi-0.dtd" xmlns:svg="http://www.w3.org/2000/svg"
	 xmlns="http://www.w3.org/2000/svg" xmlns:xlink="http://www.w3.org/1999/xlink" x="0px" y="0px" viewBox="0 0 120 120"
	 style="enable-background:new 0 0 120 120;" xml:space="preserve">
<g transform="translate(0,-952.36218)">
	<g transform="translate(7.0019695,956.33723)">
		<path d="M52.9-2c-8.1,0-16.1,3-22.3,9.2c-6.4,6.4-9.3,15-9.1,23.5h-0.1C8.9,30.7-1.2,40.8-1.2,53.4S8.9,76.1,21.4,76.1h59.2
			c14.6,0,26.4-11.8,26.4-26.4c0-13.5-10.2-24.7-23.3-26.2c-1.1-5.9-4-11.6-8.6-16.2C69,1,61-2,52.9-2z M52.9,0.5
			c7.4,0,14.7,2.8,20.4,8.4c4.4,4.4,7.2,9.9,8.1,15.7c0.1,0.5,0.6,1,1.1,1c12.3,1.1,22,11.3,22,23.9c0,13.2-10.7,23.9-23.9,23.9
			H21.4c-11.2,0-20.1-8.9-20.1-20.1s8.9-20.1,20.1-20.1h1.4c0.8,0,1.4-0.6,1.3-1.4c-0.6-8.2,2.1-16.6,8.4-22.9
			C38.2,3.4,45.5,0.5,52.9,0.5z"/>
		<path d="M21.6,85.5l-5,8.7c-0.4,0.6-0.1,1.4,0.5,1.6c0.6,0.3,1.4,0.1,1.8-0.5l5-8.7c0.4-0.6,0.1-1.4-0.5-1.8
			C22.6,84.6,22,85.2,21.6,85.5z M43,85.5l-5,8.7c-0.3,0.6-0.1,1.4,0.5,1.6c0.6,0.3,1.4,0.1,1.8-0.5l5-8.7c0.3-0.6,0.1-1.4-0.5-1.8
			C44,84.6,43.4,85.1,43,85.5z M64.4,85.5l-5,8.7c-0.4,0.6-0.1,1.4,0.5,1.6c0.6,0.3,1.4,0.1,1.8-0.5l5-8.7c0.4-0.6,0.1-1.4-0.5-1.8
			C65.4,84.6,64.8,85,64.4,85.5z M85.8,85.5l-5,8.7c-0.4,0.6-0.1,1.4,0.5,1.6c0.6,0.3,1.4,0.1,1.6-0.5l5-8.7
			c0.4-0.6,0.1-1.4-0.5-1.8C86.8,84.6,86.2,85,85.8,85.5z M26.6,103.3l-5,8.7c-0.4,0.6-0.1,1.4,0.5,1.8c0.6,0.4,1.4,0.1,1.8-0.5
			l5-8.7c0.4-0.6,0.1-1.4-0.5-1.6C27.6,102.4,27,102.7,26.6,103.3z M48,103.3l-5,8.7c-0.3,0.6-0.1,1.4,0.5,1.8
			c0.6,0.4,1.4,0.1,1.8-0.5l5-8.7c0.3-0.6,0.1-1.4-0.5-1.6C48.9,102.4,48.4,102.7,48,103.3z M69.4,103.3l-5,8.7
			c-0.4,0.6-0.1,1.4,0.5,1.8c0.6,0.4,1.4,0.1,1.6-0.5l5-8.7c0.4-0.6,0.1-1.4-0.5-1.6C70.3,102.4,69.8,102.7,69.4,103.3z"/>
	</g>
</g>
</svg>
