<?xml version="1.0" encoding="utf-8"?>
<!-- Generator: Adobe Illustrator 24.0.3, SVG Export Plug-In . SVG Version: 6.00 Build 0)  -->
<svg version="1.1"
	 id="Layer_1" xmlns:cc="http://creativecommons.org/ns#" xmlns:dc="http://purl.org/dc/elements/1.1/" xmlns:inkscape="http://www.inkscape.org/namespaces/inkscape" xmlns:rdf="http://www.w3.org/1999/02/22-rdf-syntax-ns#" xmlns:sodipodi="http://sodipodi.sourceforge.net/DTD/sodipodi-0.dtd" xmlns:svg="http://www.w3.org/2000/svg"
	 xmlns="http://www.w3.org/2000/svg" xmlns:xlink="http://www.w3.org/1999/xlink" x="0px" y="0px" viewBox="0 0 120 120"
	 style="enable-background:new 0 0 120 120;" xml:space="preserve">
<g>
	<g transform="translate(0,-952.36218)">
		<path d="M54.9,963.8c-7.9,0-16,2.9-22.1,8.7c-4.1,4-6.8,8.7-8.2,13.7c-12.4,2.2-21.8,12.3-21.8,24.5c0,13.8,11.9,25,26.6,25h54.3
			c12.8,0,23.1-9.8,23.1-21.8c0-11.4-9.3-20.6-21.1-21.6c-0.3-7.3-3.1-14.4-8.9-19.9C70.9,966.6,62.9,963.8,54.9,963.8z M54.9,970.3
			c6.3,0,12.4,2.2,17.1,6.6c5.2,5,7.5,11.6,7,18.1c-0.1,1.8,1.3,3.3,3.2,3.6c0.1,0,0.3,0,0.3,0h1.3c9.1,0,16.2,6.8,16.2,15.3
			c0,8.6-7.1,15.3-16.2,15.3H29.5c-10.9,0-19.7-8.3-19.7-18.5c0-9.7,7.9-17.7,18-18.5c1.5-0.1,2.9-1.3,3.2-2.7
			c0.8-4.6,3.1-8.9,6.8-12.4C42.5,972.5,48.6,970.3,54.9,970.3z M33.8,1039.3c-1.1,0.1-2.2,0.6-2.7,1.7l-11.5,18.9
			c-0.9,1.5-0.4,3.6,1.3,4.5c1.7,0.9,3.8,0.4,4.7-1.1l11.5-18.9c0.9-1.5,0.4-3.6-1.3-4.5C35.2,1039.4,34.6,1039.1,33.8,1039.3z
			 M57.2,1039.3c-1.1,0.1-2.2,0.6-2.8,1.7l-13.9,22.7c-0.9,1.5-0.4,3.6,1.3,4.5c1.7,0.9,3.8,0.4,4.7-1.1l13.9-22.7
			c0.9-1.5,0.4-3.6-1.3-4.5C58.5,1039.4,57.8,1039.1,57.2,1039.3z M80.3,1039.3c-1.1,0.1-2.2,0.6-2.8,1.7L66,1059.8
			c-0.9,1.5-0.4,3.6,1.3,4.5c1.7,0.9,3.8,0.4,4.7-1.1l11.5-18.9c0.9-1.5,0.4-3.6-1.3-4.5C81.6,1039.4,80.9,1039.1,80.3,1039.3z"/>
	</g>
	<path d="M86.4,14.9c-0.9,0-1.7-0.8-1.7-1.7V3.6c0-0.9,0.8-1.7,1.7-1.7c0.9,0,1.7,0.8,1.7,1.7v9.7C88,14.1,87.3,14.9,86.4,14.9z"/>
	<path d="M117,35.8h-9.7c-0.9,0-1.7-0.8-1.7-1.7c0-0.9,0.8-1.7,1.7-1.7h9.7c0.9,0,1.7,0.8,1.7,1.7C118.6,35,117.8,35.8,117,35.8z"/>
	<path d="M102.4,20.5c-0.6,0.6-1.7,0.6-2.3,0s-0.6-1.7,0-2.3l6.8-6.8c0.6-0.6,1.7-0.6,2.3,0s0.6,1.7,0,2.3L102.4,20.5z"/>
	<path d="M80.7,35.5c1.3,5.1,0.4,1.9,5.7,5.4c3.7-0.3,6.9,1.5,9.2,4.1c5.2-3.8,8-12,4.2-19.4c-1-2-2.8-3.7-4.9-4.9
		c-10.2-5.4-18-0.9-18.6,8.3C77.1,28.8,80.1,32.9,80.7,35.5z"/>
</g>
</svg>
