<?xml version="1.0" encoding="utf-8"?>
<!-- Generator: Adobe Illustrator 24.0.3, SVG Export Plug-In . SVG Version: 6.00 Build 0)  -->
<svg version="1.1"
	 id="Layer_1" xmlns:cc="http://creativecommons.org/ns#" xmlns:dc="http://purl.org/dc/elements/1.1/" xmlns:inkscape="http://www.inkscape.org/namespaces/inkscape" xmlns:rdf="http://www.w3.org/1999/02/22-rdf-syntax-ns#" xmlns:sodipodi="http://sodipodi.sourceforge.net/DTD/sodipodi-0.dtd" xmlns:svg="http://www.w3.org/2000/svg"
	 xmlns="http://www.w3.org/2000/svg" xmlns:xlink="http://www.w3.org/1999/xlink" x="0px" y="0px" viewBox="0 0 120 120"
	 style="enable-background:new 0 0 120 120;" xml:space="preserve">
<g transform="translate(0,-952.36218)">
	<path d="M60,954.4c-8.3,0-16.7,3.1-23,9.5c-4.4,4.4-7.2,9.7-8.4,15.2c-12.9,2.2-22.9,13.5-22.9,27.2c0,15.3,12.5,27.8,27.8,27.8
		h56.7c13.3,0,24.1-10.8,24.1-24.1c0-12.5-9.7-22.9-22-23.9c-0.3-8-3.2-16-9.3-22C76.6,957.5,68.3,954.4,60,954.4z M60,961.6
		c6.5,0,12.9,2.4,17.8,7.3c5.6,5.6,8,12.9,7.3,20.1c-0.1,2.1,1.3,3.8,3.2,3.9c0.1,0,0.3,0,0.4,0h1.3c9.4,0,16.8,7.4,16.8,16.8
		s-7.4,16.8-16.8,16.8H33.3c-11.4,0-20.5-9.1-20.5-20.5c0-10.8,8.3-19.5,18.8-20.5c1.7-0.1,3.1-1.3,3.2-3.1c0.8-5.1,3.1-10,7-13.8
		C47.1,964,53.4,961.6,60,961.6z M38,1038c-1.3,0.1-2.2,0.7-2.9,1.8L23,1060.7c-1,1.7-0.4,3.9,1.3,4.9s3.9,0.4,4.9-1.3l12.1-20.9
		c1-1.7,0.4-3.9-1.3-4.9C39.4,1038.1,38.7,1037.8,38,1038z M62.3,1038c-1.3,0.1-2.2,0.7-2.9,1.8l-14.5,25.1c-1,1.7-0.4,3.9,1.3,4.9
		c1.7,1,3.9,0.4,4.9-1.3l14.5-25.1c1-1.7,0.4-3.9-1.3-4.9C63.7,1038.1,63,1037.8,62.3,1038z M86.4,1038c-1.3,0.1-2.2,0.7-2.9,1.8
		l-12.1,20.9c-1,1.7-0.4,3.9,1.3,4.9c1.7,1,3.9,0.4,4.9-1.3l12.1-20.9c1-1.7,0.4-3.9-1.3-4.9C87.8,1038.1,87.1,1037.8,86.4,1038z"/>
</g>
</svg>
