<?xml version="1.0" encoding="utf-8"?>
<!-- Generator: Adobe Illustrator 24.0.3, SVG Export Plug-In . SVG Version: 6.00 Build 0)  -->
<svg version="1.1" id="Layer_1" xmlns="http://www.w3.org/2000/svg" xmlns:xlink="http://www.w3.org/1999/xlink" x="0px" y="0px"
	 viewBox="0 0 120 120" style="enable-background:new 0 0 120 120;" xml:space="preserve">
<g>
	<path d="M103.4,41.3c-0.1-18-14.6-32.5-32.6-32.5c-13.8,0-25.5,8.5-30.3,20.6c-2.7-3.5-6.9-5.8-11.7-5.8c-8.1,0-14.6,6.5-14.6,14.6
		c0,1.1,0.1,2.2,0.4,3.2C7.4,42.2,1.9,48.2,1.9,55.5c0,7.9,6.4,14.2,14.2,14.2h87c7.9,0,14.2-6.4,14.2-14.2
		C117.4,47.8,111.1,41.4,103.4,41.3z"/>
	<polygon points="81.5,74.8 65.2,74.8 45.9,90.7 57.1,90.7 37.7,110.6 73.4,90.7 62.2,90.7 	"/>
</g>
</svg>
