<?xml version="1.0" encoding="utf-8"?>
<!-- Generator: Adobe Illustrator 24.0.3, SVG Export Plug-In . SVG Version: 6.00 Build 0)  -->
<svg version="1.1" id="Layer_1" xmlns="http://www.w3.org/2000/svg" xmlns:xlink="http://www.w3.org/1999/xlink" x="0px" y="0px"
	 viewBox="0 0 120 120" style="enable-background:new 0 0 120 120;" xml:space="preserve">
<g>
	<path d="M108.8,28.7c0-1.1-0.9-2-2-2H13.1c-1.1,0-2,0.9-2,2c0,1.1,0.9,2,2,2h93.8C108,30.7,108.8,29.8,108.8,28.7z"/>
	<path d="M28.7,34.6c-1.1,0-2,0.9-2,2c0,1.1,0.9,2,2,2h66.4c1.1,0,2-0.9,2-2c0-1.1-0.9-2-2-2H28.7z"/>
	<path d="M28.7,60c0,1.1,0.9,2,2,2h66.4c1.1,0,2-0.9,2-2s-0.9-2-2-2H30.7C29.6,58,28.7,58.9,28.7,60z"/>
	<path d="M97.1,73.7H30.7c-1.1,0-2,0.9-2,2c0,1.1,0.9,2,2,2h66.4c1.1,0,2-0.9,2-2C99.1,74.6,98.2,73.7,97.1,73.7z"/>
	<path d="M19,91.3c0,1.1,0.9,2,2,2h66.4c1.1,0,2-0.9,2-2s-0.9-2-2-2H20.9C19.8,89.3,19,90.2,19,91.3z"/>
	<path d="M108.8,54.1c1.1,0,2-0.9,2-2c0-1.1-0.9-2-2-2H42.4c-1.1,0-2,0.9-2,2c0,1.1,0.9,2,2,2H108.8z"/>
	<path d="M34.6,83.4c0,1.1,0.9,2,2,2h74.2c1.1,0,2-0.9,2-2c0-1.1-0.9-2-2-2H36.6C35.5,81.5,34.6,82.4,34.6,83.4z"/>
	<path d="M116.7,42.4H3.3c-1.1,0-2,0.9-2,2c0,1.1,0.9,2,2,2h113.3c1.1,0,2-0.9,2-2C118.6,43.3,117.7,42.4,116.7,42.4z"/>
	<path d="M116.7,65.9H3.3c-1.1,0-2,0.9-2,2s0.9,2,2,2h113.3c1.1,0,2-0.9,2-2S117.7,65.9,116.7,65.9z"/>
</g>
</svg>
